<svg xmlns="http://www.w3.org/2000/svg" width="23" height="26" viewBox="1023 4323 23 26"><g data-name="CompositeLayer"><path d="M1023 4324v25h1v-11h19v-1h-19v-5h13v-1h-13v-6h19v-1h-20v7m0 1v17" fill="rgba(187, 156, 102, 1)" fill-rule="evenodd" data-name="Shape 88"/><path d="M1023 4336v-1h19v1h-19Zm0-2v-1h17v1h-17Zm4-2v-1l7-7v1l-7 7Zm5 0v-1l6-7v1l-6 7Zm-8-2v-1l5-5v1l-5 5Z" fill="rgba(187, 156, 102, 1)" fill-rule="evenodd" data-name="Shape 91"/><path d="M1046 4324.5Z" fill="rgba(187, 156, 102, 1)" fill-rule="evenodd" data-name="Shape 89"/><path d="m1043.285 4323 .735.674-6.916 6.335 6.916 6.336-.735.674-7.285-6.673.368-.337-.368-.337 7.285-6.672Z" fill="rgba(187, 156, 102, 1)" fill-rule="evenodd" data-name="Shape 90"/></g></svg>